HIERARCHY
ROOT Hips
{
	OFFSET 0.000000 0.000000 0.000000
	CHANNELS 6 Xposition Yposition Zposition Zrotation Yrotation Xrotation 
	JOINT LHipJoint
	{
		OFFSET 0.000000 0.000000 0.000000
		CHANNELS 3 Zrotation Yrotation Xrotation
		JOINT LeftUpLeg
		{
			OFFSET 1.363060 -1.794630 0.839290
			CHANNELS 3 Zrotation Yrotation Xrotation
			JOINT LeftLeg
			{
				OFFSET 2.448110 -6.726130 0.000000
				CHANNELS 3 Zrotation Yrotation Xrotation
				JOINT LeftFoot
				{
					OFFSET 2.562200 -7.039590 0.000000
					CHANNELS 3 Zrotation Yrotation Xrotation
					JOINT LeftToeBase
					{
						OFFSET 0.157640 -0.433110 2.322550
						CHANNELS 3 Zrotation Yrotation Xrotation
						End Site
						{
							OFFSET 0.000000 0.000000 0.000000
						}
					}
				}
			}
		}
	}
	JOINT RHipJoint
	{
		OFFSET 0.000000 0.000000 0.000000
		CHANNELS 3 Zrotation Yrotation Xrotation
		JOINT RightUpLeg
		{
			OFFSET -1.305520 -1.794630 0.839290
			CHANNELS 3 Zrotation Yrotation Xrotation
			JOINT RightLeg
			{
				OFFSET -2.542530 -6.985550 0.000000
				CHANNELS 3 Zrotation Yrotation Xrotation
				JOINT RightFoot
				{
					OFFSET -2.568260 -7.056230 0.000000
					CHANNELS 3 Zrotation Yrotation Xrotation
					JOINT RightToeBase
					{
						OFFSET -0.164730 -0.452590 2.363150
						CHANNELS 3 Zrotation Yrotation Xrotation
						End Site
						{
							OFFSET 0.000000 0.000000 0.000000
						}
					}
				}
			}
		}
	}
	JOINT LowerBack
	{
		OFFSET 0.000000 0.000000 0.000000
		CHANNELS 3 Zrotation Yrotation Xrotation
		JOINT Spine
		{
			OFFSET 0.028270 2.035590 -0.193380
			CHANNELS 3 Zrotation Yrotation Xrotation
			JOINT Spine1
			{
				OFFSET 0.056720 2.048850 -0.042750
				CHANNELS 3 Zrotation Yrotation Xrotation
				JOINT Neck
				{
					OFFSET 0.000000 0.000000 0.000000
					CHANNELS 3 Zrotation Yrotation Xrotation
					JOINT Neck1
					{
						OFFSET -0.054170 1.746240 0.172020
						CHANNELS 3 Zrotation Yrotation Xrotation
						JOINT Head
						{
							OFFSET 0.104070 1.761360 -0.123970
							CHANNELS 3 Zrotation Yrotation Xrotation
							End Site
							{
								OFFSET 0.000000 0.000000 0.000000
							}
						}
					}
				}
				JOINT LeftShoulder
				{
					OFFSET 0.000000 0.000000 0.000000
					CHANNELS 3 Zrotation Yrotation Xrotation
					JOINT LeftArm
					{
						OFFSET 3.362410 1.200890 -0.311210
						CHANNELS 3 Zrotation Yrotation Xrotation
						JOINT LeftForeArm
						{
							OFFSET 4.983000 -0.000000 -0.000000
							CHANNELS 3 Zrotation Yrotation Xrotation
							JOINT LeftHand
							{
								OFFSET 3.483560 -0.000000 -0.000000
								CHANNELS 3 Zrotation Yrotation Xrotation
								JOINT LeftFingerBase
								{
									OFFSET 0.000000 0.000000 0.000000
									CHANNELS 3 Zrotation Yrotation Xrotation
									JOINT LeftHandIndex1
									{
										OFFSET 0.715260 -0.000000 -0.000000
										CHANNELS 3 Zrotation Yrotation Xrotation
										End Site
										{
											OFFSET 0.000000 0.000000 0.000000
										}
									}
								}
								JOINT LThumb
								{
									OFFSET 0.000000 0.000000 0.000000
									CHANNELS 3 Zrotation Yrotation Xrotation
									End Site
									{
										OFFSET 0.000000 0.000000 0.000000
									}
								}
							}
						}
					}
				}
				JOINT RightShoulder
				{
					OFFSET 0.000000 0.000000 0.000000
					CHANNELS 3 Zrotation Yrotation Xrotation
					JOINT RightArm
					{
						OFFSET -3.136600 1.374050 -0.404650
						CHANNELS 3 Zrotation Yrotation Xrotation
						JOINT RightForeArm
						{
							OFFSET -5.241900 -0.000000 -0.000000
							CHANNELS 3 Zrotation Yrotation Xrotation
							JOINT RightHand
							{
								OFFSET -3.444170 -0.000000 -0.000000
								CHANNELS 3 Zrotation Yrotation Xrotation
								JOINT RightFingerBase
								{
									OFFSET 0.000000 0.000000 0.000000
									CHANNELS 3 Zrotation Yrotation Xrotation
									JOINT RightHandIndex1
									{
										OFFSET -0.622530 -0.000000 -0.000000
										CHANNELS 3 Zrotation Yrotation Xrotation
										End Site
										{
											OFFSET 0.000000 0.000000 0.000000
										}
									}
								}
								JOINT RThumb
								{
									OFFSET 0.000000 0.000000 0.000000
									CHANNELS 3 Zrotation Yrotation Xrotation
									End Site
									{
										OFFSET 0.000000 0.000000 0.000000
									}
								}
							}
						}
					}
				}
			}
		}
	}
}
MOTION
Frames: 7
Frame Time: 0.008333
-32.627288 18.103862 -22.977889 -13.826983 73.973329 -6.440783 -1.752836 -0.142954 -0.273318 -3.911247 -9.725062 -20.930342 -1.526461 9.405887 26.421770 6.224893 -14.281976 19.540266 1.950700 8.762500 25.055300 2.914888 -3.058671 3.782443 16.245101 16.715688 4.004299 3.583474 -2.004540 8.180015 -0.317062 -1.284869 -4.356496 -0.165900 -2.624300 7.234500 -0.095455 1.385106 10.335945 5.016491 1.812792 12.472218 2.222242 1.950995 3.537678 -1.325223 4.785607 -5.351404 -1.481021 5.391292 -7.714201 -2.071200 2.371000 -1.670500 -0.906255 -5.529524 0.245996 -81.194329 17.101125 31.160993 29.528496 -39.523212 -12.973568 0.616721 -1.416381 2.398302 -2.844488 9.114829 -0.642000 -7.125000 0.000000 0.000000 -26.107800 39.054500 4.163500 1.820407 5.785659 2.366517 64.439096 -16.114922 52.119392 -31.439234 38.155849 -10.908727 0.625301 -0.327075 1.734638 -14.418096 -14.436873 3.743000 7.125000 0.000000 0.000000 11.404000 -44.233100 0.218800 
-32.625559 18.104473 -22.978804 -13.785556 73.959058 -6.389861 -1.756416 -0.141746 -0.272364 -3.924697 -9.717793 -20.929075 -1.527489 9.403152 26.409648 6.223857 -14.273708 19.497291 1.938400 8.736600 24.974800 2.915204 -3.058433 3.780899 16.224971 16.734422 3.998120 3.583669 -2.004100 8.177884 -0.310262 -1.302867 -4.311048 -0.159900 -2.576600 7.102200 -0.095564 1.390932 10.331385 5.007462 1.819658 12.458153 2.214023 1.953291 3.527589 -1.295748 4.782818 -5.327722 -1.504494 5.386009 -7.705709 -2.082100 2.368900 -1.672000 -0.916298 -5.533173 0.246150 -81.090437 16.983206 31.305679 29.304343 -39.338098 -12.809682 0.613477 -1.414175 2.292089 -2.717522 9.042359 -0.613500 -7.125000 0.000000 0.000000 -25.976200 39.000000 4.177000 1.822200 5.790250 2.367478 64.449429 -16.135679 52.099925 -31.453836 38.168410 -10.918244 0.624973 -0.328014 1.715824 -14.439691 -14.426907 3.745600 7.125000 0.000000 0.000000 11.382100 -44.224100 0.221000 
-32.623932 18.105083 -22.979923 -13.741442 73.942006 -6.335914 -1.759915 -0.140735 -0.271390 -3.937974 -9.709325 -20.929040 -1.528422 9.400705 26.398282 6.222574 -14.264560 19.458288 1.930600 8.720000 24.923400 2.915687 -3.058006 3.778974 16.204154 16.756257 3.990684 3.583626 -2.005361 8.179774 -0.302455 -1.323798 -4.263507 -0.153500 -2.524800 6.958500 -0.097146 1.397595 10.325980 4.997894 1.827461 12.444370 2.206124 1.956032 3.518274 -1.266101 4.780406 -5.303611 -1.528416 5.381068 -7.700917 -2.093100 2.366900 -1.674700 -0.926345 -5.536979 0.246349 -80.986743 16.864544 31.447697 29.080622 -39.152423 -12.647576 0.610736 -1.411654 2.183592 -2.605199 8.942018 -0.586400 -7.125000 0.000000 0.000000 -25.847100 38.918800 4.209200 1.824027 5.794756 2.368352 64.460111 -16.154608 52.082506 -31.469895 38.182077 -10.928724 0.624887 -0.328748 1.690246 -14.460487 -14.421122 3.749100 7.125000 0.000000 0.000000 11.361800 -44.219500 0.221800 
-32.622305 18.105795 -22.981042 -13.693071 73.923761 -6.276907 -1.763565 -0.139951 -0.270509 -3.951691 -9.701409 -20.929817 -1.529807 9.398134 26.386988 6.221163 -14.255547 19.428038 1.915700 8.688200 24.824800 2.916063 -3.057624 3.777072 16.182131 16.779129 3.983788 3.583540 -2.006345 8.181043 -0.293516 -1.349220 -4.218064 -0.147100 -2.471500 6.810500 -0.099083 1.404919 10.319296 4.987405 1.836033 12.430269 2.197406 1.959110 3.509370 -1.238111 4.777773 -5.279604 -1.549757 5.375832 -7.697953 -2.103200 2.364700 -1.677800 -0.936361 -5.540836 0.246566 -80.881270 16.746775 31.591805 28.859163 -38.966807 -12.487203 0.607651 -1.409197 2.073366 -2.484063 8.859200 -0.559000 -7.125000 0.000000 0.000000 -25.716700 38.853900 4.229200 1.825947 5.799096 2.369176 64.470556 -16.175056 52.067515 -31.488484 38.197703 -10.940653 0.624636 -0.329551 1.662820 -14.482657 -14.412020 3.752100 7.125000 0.000000 0.000000 11.339500 -44.211600 0.223600 
-32.620576 18.106405 -22.982161 -13.648019 73.907397 -6.221870 -1.767072 -0.139229 -0.269742 -3.964708 -9.695494 -20.930035 -1.531238 9.395712 26.376507 6.220668 -14.251915 19.398566 1.900200 8.655000 24.721900 2.916385 -3.057264 3.775337 16.160910 16.800061 3.977075 3.583425 -2.007498 8.183070 -0.285259 -1.371838 -4.170220 -0.140800 -2.418700 6.664300 -0.100727 1.411755 10.312701 4.977112 1.843930 12.416368 2.188985 1.961908 3.500921 -1.210263 4.774201 -5.255543 -1.571476 5.369258 -7.696250 -2.113300 2.361800 -1.681400 -0.946327 -5.544623 0.246797 -80.773877 16.632329 31.740799 28.642943 -38.783705 -12.329813 0.603599 -1.407129 1.957162 -2.337947 8.828306 -0.530100 -7.125000 0.000000 0.000000 -25.583600 38.838700 4.214000 1.827843 5.803312 2.369935 64.481412 -16.194884 52.055344 -31.507042 38.213379 -10.952518 0.624424 -0.330394 1.636658 -14.505481 -14.403952 3.755500 7.125000 0.000000 0.000000 11.316900 -44.204800 0.225100 
-32.618745 18.107117 -22.983279 -13.598102 73.885402 -6.155717 -1.770178 -0.139298 -0.269446 -3.977550 -9.684288 -20.936401 -1.532442 9.393685 26.366495 6.219829 -14.245638 19.370745 1.883500 8.619100 24.611000 2.917352 -3.056346 3.772889 16.136633 16.827794 3.966247 3.583441 -2.008466 8.184002 -0.276287 -1.396579 -4.118060 -0.133900 -2.358900 6.498600 -0.102803 1.420452 10.295891 4.965898 1.853906 12.401764 2.179794 1.965763 3.497656 -1.184361 4.770438 -5.233285 -1.590846 5.362515 -7.695532 -2.122400 2.358800 -1.684900 -0.956182 -5.548426 0.247074 -80.663095 16.520467 31.896659 28.430179 -38.601672 -12.174375 0.598685 -1.405309 1.833512 -2.167983 8.836761 -0.498900 -7.125000 0.000000 0.000000 -25.444000 38.861300 4.171500 1.829858 5.807379 2.370579 64.493486 -16.213830 52.045721 -31.525129 38.228433 -10.963819 0.623985 -0.331417 1.611960 -14.529419 -14.390934 3.757800 7.125000 0.000000 0.000000 11.292200 -44.192900 0.228000 
-32.616711 18.107727 -22.984297 -13.555227 73.868548 -6.099502 -1.773006 -0.138916 -0.269431 -3.990211 -9.676696 -20.940377 -1.532970 9.392618 26.358718 6.220854 -14.248852 19.327595 1.864600 8.578100 24.484400 2.917836 -3.055969 3.771325 16.116030 16.849229 3.959463 3.583621 -2.008396 8.182861 -0.267441 -1.421017 -4.067770 -0.127300 -2.300000 6.335600 -0.104119 1.427859 10.280656 4.955365 1.862218 12.388284 2.171198 1.968685 3.494560 -1.159372 4.765390 -5.212092 -1.609862 5.354237 -7.694232 -2.131200 2.355000 -1.688200 -0.965970 -5.552192 0.247398 -80.551833 16.409512 32.055901 28.221810 -38.421819 -12.022219 0.593478 -1.403591 1.705681 -1.993212 8.860582 -0.467400 -7.125000 0.000000 0.000000 -25.305200 38.898300 4.119700 1.831809 5.811419 2.371139 64.506858 -16.232840 52.037135 -31.543367 38.243698 -10.975121 0.623485 -0.332531 1.586962 -14.554517 -14.376414 3.759900 7.125000 0.000000 0.000000 11.266000 -44.179700 0.231200 
